<?xml version="1.0" encoding="UTF-8" standalone="no"?>
<!DOCTYPE svg PUBLIC "-//W3C//DTD SVG 1.1//EN" "http://www.w3.org/Graphics/SVG/1.1/DTD/svg11.dtd">
<!-- Created with Vectornator (http://vectornator.io/) -->
<svg height="500%" stroke-miterlimit="10" style="fill-rule:nonzero;clip-rule:evenodd;stroke-linecap:round;stroke-linejoin:round;" version="1.1" viewBox="0 0 595.35 419.58" width="100%" xml:space="preserve" xmlns="http://www.w3.org/2000/svg" xmlns:vectornator="http://vectornator.io" xmlns:xlink="http://www.w3.org/1999/xlink">
<defs/>
<clipPath id="ArtboardFrame">
<rect height="1500" width="1500" x="0" y="0"/>
</clipPath>
<g clip-path="url(#ArtboardFrame)" id="Layer-1" vectornator:layerName="Layer 1">
<g opacity="1">
<path d="M294.043 111.083C292.123 111.096 290.324 112.238 289.542 114.122C283.965 127.56 280.315 135.669 276.733 142.318C274.964 145.6 273.157 148.605 271.155 151.665C268.782 155.292 266.069 159.012 262.193 164.128C259.852 167.217 249.548 180.63 249.076 181.245C237.645 196.129 211.723 222.965 201.377 229.521C199.117 230.953 197.306 231.904 195.184 233.213C188.217 229.465 180.056 225.173 176.49 223.828C158.349 216.981 153.698 215.521 145.947 214.826C141.947 214.468 137.999 214.616 133.869 215.327C121.125 217.52 109.944 225.882 105.827 236.137C101.057 248.021 106.67 259.457 121.368 265.294C132.646 269.774 143.779 268.512 159.449 262.986C166.313 260.566 174.345 256.771 183.375 251.793C187.228 249.669 191.462 246.959 195.454 244.561C197.079 245.466 197.795 245.808 199.685 246.869C199.75 246.905 215.237 255.49 220.341 257.986C251.654 273.297 273.749 285.037 294.158 297.683C296.47 299.115 299.534 298.379 300.967 296.067C302.399 293.755 301.663 290.73 299.351 289.297C278.6 276.44 256.234 264.582 224.649 249.138C219.935 246.833 215.014 244.143 205.262 238.676C205.756 238.364 206.146 238.185 206.647 237.868C218.193 230.552 244.807 202.972 256.884 187.246C257.332 186.663 267.668 173.22 270.04 170.09C274.041 164.809 276.87 160.897 279.387 157.05C281.542 153.757 283.486 150.502 285.388 146.972C289.162 139.968 292.965 131.611 298.659 117.891C299.701 115.379 298.478 112.51 295.966 111.468C295.338 111.207 294.682 111.079 294.043 111.083ZM140.37 224.52C141.943 224.453 143.489 224.494 145.063 224.635C151.54 225.216 155.881 226.588 173.028 233.06C176.09 234.215 180.137 236.231 185.452 239.06C183.253 240.339 180.773 241.943 178.605 243.138C170.009 247.877 162.448 251.506 156.179 253.716C142.557 258.52 133.501 259.522 124.983 256.139C115.162 252.238 112.291 246.438 114.944 239.83C117.731 232.887 126.057 226.656 135.562 225.02C137.207 224.737 138.796 224.587 140.37 224.52Z" fill="#150b14" fill-rule="nonzero" opacity="0.990956" stroke="#000000" stroke-linecap="round" stroke-linejoin="round" stroke-width="5.24699"/>
<path d="M638.469-192.158C637.58-191.974 636.73-191.536 636.046-190.889C635.3-190.183 634.938-189.435 634.7-188.658C634.52-188.072 634.45-187.578 634.43-187.004C634.274-182.489 634.299-178.915 634.392-170.887C634.437-166.929 634.43-165.184 634.43-163.001C634.43-159.317 634.368-155.571 634.2-150.807C634.143-149.21 633.651-136.016 633.623-135.113C633.071-117.472 632.829-108.97 632.661-98.8008C632.41-83.6134 632.459-70.3978 632.892-57.8727C633.028-53.9195 633.279-50.8048 633.892-43.8325C633.892-43.8325 634.328-38.8706 634.469-36.9855C634.672-34.2616 635.152-32.2673 636.315-30.677C638.28-27.9907 641.569-27.3961 644.355-28.8306C646.783-30.0813 648.804-32.6901 651.279-36.8701C652.139-38.3234 653.053-39.9795 653.971-41.7553C655.136-44.008 656.259-46.3728 657.433-48.91C657.981-50.0937 659.149-52.6077 659.203-52.7182C660.388-55.1662 659.343-58.1106 656.895-59.2959C654.447-60.4812 651.502-59.4744 650.317-57.0264C650.198-56.7804 649.009-54.1062 648.509-53.0259C647.391-50.609 646.291-48.3643 645.201-46.2558C644.704-45.2946 644.248-44.5235 643.778-43.6786C643.762-43.8612 643.701-44.6787 643.701-44.6787C643.104-51.4775 642.868-54.4978 642.739-58.2188C642.312-70.5583 642.26-83.6152 642.508-98.6469C642.675-108.752 642.92-117.212 643.47-134.805C643.498-135.708 643.99-148.808 644.047-150.422C644.219-155.292 644.278-159.183 644.278-163.001C644.278-165.235 644.285-167.007 644.239-171.002C644.208-173.724 644.247-174.537 644.239-176.426C646.098-177.597 647.061-179.816 646.355-182.003C646.273-182.256 645.543-184.903 645.547-184.888C645.493-185.082 645.486-185.078 645.432-185.273C644.989-186.846 644.691-187.825 644.393-188.581C644.257-188.927 644.106-189.23 643.932-189.543C643.772-189.83 643.592-190.102 643.355-190.389C642.826-191.028 642.189-191.565 641.2-191.928C640.31-192.254 639.359-192.343 638.469-192.158Z" fill="#150b14" fill-rule="nonzero" opacity="1" stroke="#000000" stroke-linecap="round" stroke-linejoin="round" stroke-width="5.24699"/>
<path d="M676.474-196.043C675.152-196.273 673.699-195.966 672.397-194.89C670.826-193.591 670.506-192.449 670.127-190.004C669.825-188.053 669.618-185.279 669.435-181.119C669.377-179.818 669.126-173.455 669.088-172.848C668.642-165.699 668.52-159.515 668.435-147.461C668.431-146.944 668.365-138.919 668.319-136.036C667.93-111.553 668.117-91.1711 669.088-72.1052C669.206-69.7908 669.258-67.8837 669.396-63.6426C669.412-63.1577 669.691-55.7481 669.858-52.9874C669.89-52.4521 669.995-50.7423 670.012-50.4487C670.224-46.7412 670.384-44.6599 670.666-42.3323C670.758-41.568 670.881-40.6961 671.05-39.9858C671.253-39.1347 671.459-38.5289 671.935-37.7933C672.265-37.2832 672.687-36.8321 673.281-36.4085C674.359-35.6403 675.736-35.2508 677.205-35.5622C678.472-35.8309 679.415-36.5302 680.09-37.3701C680.438-37.8043 680.675-38.2342 680.859-38.678C682.635-42.9571 683.852-46.4723 686.321-54.1799C686.511-54.7712 686.605-55.0569 686.706-55.3723C690.542-67.33 692.859-73.1777 696.669-79.2984C697.508-80.6472 698.207-81.3864 698.938-82.3372C699.401-79.6619 699.823-75.6258 700.092-68.0662C700.182-65.545 700.197-64.856 700.246-63.6426C700.768-50.8377 701.767-43.8101 704.747-38.7549C709.757-30.2546 718.574-31.0245 728.827-40.0243C731.289-42.1858 733.226-44.7966 735.289-48.4484C736.62-50.8048 737.466-52.7341 739.251-56.9879C739.264-57.0182 740.888-60.8724 741.559-62.2578C742.744-64.7059 741.737-67.6502 739.289-68.8355C736.841-70.0208 733.897-69.0141 732.712-66.566C731.939-64.9701 731.386-63.6731 730.211-60.873C730.199-60.8428 727.79-55.2053 726.711-53.2952C725.145-50.5233 723.788-48.7316 722.326-47.4483C718.749-44.3088 716.101-42.8169 714.556-42.6785C714.019-42.6304 713.813-42.7966 713.248-43.7555C711.435-46.8312 710.541-53.0318 710.093-64.0273C710.045-65.217 710.029-65.9102 709.94-68.4124C709.692-75.3758 709.497-78.5073 709.093-81.7987C708.476-86.8415 707.451-90.2164 705.247-92.4923C703.236-94.5689 700.485-95.1387 697.861-94.2617C696.215-93.7114 694.775-92.687 693.361-91.2614C691.605-89.4922 690.065-87.2915 688.322-84.4913C684.738-78.7346 682.222-72.5815 679.244-63.8349C679.199-65.1715 679.048-70.4123 678.936-72.6052C677.977-91.4204 677.781-111.601 678.166-135.882C678.213-138.803 678.278-146.907 678.282-147.422C678.366-159.301 678.504-165.32 678.936-172.233C678.979-172.921 679.226-179.387 679.282-180.657C679.407-183.483 679.551-184.981 679.705-186.504C681.025-187.768 681.612-189.687 681.013-191.543C680.707-192.491 680.37-193.245 679.821-193.966C679-195.042 677.796-195.814 676.474-196.043Z" fill="#150b14" fill-rule="nonzero" opacity="1" stroke="#000000" stroke-linecap="round" stroke-linejoin="round" stroke-width="5.24699"/>
<g fill="#150b14" opacity="1" stroke="none">
<path d="M314.287 207.429L314.287 239.557C314.287 242.997 314.991 245.264 316.398 246.358C318.587 248.078 322.495 248.938 328.124 248.938C336.306 248.938 343.862 247.192 350.794 243.7C353.451 242.345 355.536 241.668 357.047 241.668C359.132 241.668 360.943 242.45 362.48 244.013C364.018 245.577 364.786 247.479 364.786 249.72C364.786 251.804 363.952 253.602 362.285 255.114C359.731 257.563 354.689 259.817 347.159 261.875C339.628 263.934 333.283 264.963 328.124 264.963C318.17 264.963 310.704 262.813 305.727 258.514C300.75 254.215 298.262 248.938 298.262 242.684L298.262 207.429L292.477 207.429C288.621 207.429 285.872 206.686 284.23 205.201C282.588 203.715 281.768 201.774 281.768 199.377C281.768 197.032 282.588 195.117 284.23 193.631C285.872 192.146 288.621 191.403 292.477 191.403L298.262 191.403L298.262 176.942C298.262 173.085 299.005 170.336 300.49 168.694C301.975 167.053 303.916 166.232 306.314 166.232C308.659 166.232 310.574 167.053 312.059 168.694C313.545 170.336 314.287 173.085 314.287 176.942L314.287 191.403L343.914 191.403C347.771 191.403 350.52 192.146 352.162 193.631C353.803 195.117 354.624 197.058 354.624 199.455C354.624 201.8 353.803 203.715 352.162 205.201C350.52 206.686 347.771 207.429 343.914 207.429L314.287 207.429Z"/>
<path d="M397.775 160.994L397.775 195.156C401.11 193.175 404.485 191.703 407.898 190.739C411.312 189.775 414.764 189.293 418.256 189.293C423.78 189.293 428.705 190.231 433.03 192.107C437.356 193.983 440.939 196.941 443.779 200.979C446.619 205.018 448.039 210.113 448.039 216.262L448.039 246.358C452.104 246.358 454.762 246.749 456.013 247.531C458.515 249.146 459.765 251.439 459.765 254.41C459.765 256.755 458.957 258.67 457.342 260.156C455.726 261.641 452.99 262.384 449.134 262.384L430.842 262.384C427.037 262.384 424.314 261.641 422.673 260.156C421.031 258.67 420.21 256.729 420.21 254.332C420.21 251.413 421.461 249.146 423.963 247.531C425.265 246.697 427.923 246.306 431.936 246.358L431.936 217.356C431.936 213.239 430.998 210.347 429.122 208.679C426.672 206.438 423.05 205.318 418.256 205.318C414.712 205.318 411.572 206.008 408.836 207.39C406.1 208.771 402.413 211.754 397.775 216.34L397.775 246.358C401.892 246.358 404.55 246.749 405.748 247.531C408.302 249.146 409.579 251.439 409.579 254.41C409.579 256.755 408.758 258.67 407.116 260.156C405.475 261.641 402.726 262.384 398.869 262.384L380.655 262.384C376.799 262.384 374.05 261.641 372.408 260.156C370.766 258.67 369.946 256.729 369.946 254.332C369.946 251.413 371.222 249.146 373.776 247.531C375.027 246.697 377.685 246.306 381.75 246.358L381.75 177.02L379.014 177.02C375.157 177.02 372.408 176.277 370.766 174.792C369.125 173.307 368.304 171.365 368.304 168.968C368.304 166.623 369.125 164.708 370.766 163.222C372.408 161.737 375.157 160.994 379.014 160.994L397.775 160.994Z"/>
</g>
<path d="M660.241-110.61C654.803-109.861 649.931-109.37 640.816-108.533C640.193-108.476 640.17-108.474 639.546-108.417C627.954-107.354 622.792-106.796 616.313-105.84C613.622-105.443 611.761-102.953 612.158-100.262C612.555-97.5717 615.045-95.7112 617.736-96.1081C623.977-97.0288 629.057-97.5617 640.47-98.6084C641.093-98.6656 641.076-98.6665 641.7-98.7238C650.957-99.5743 655.96-100.103 661.588-100.878C664.282-101.249 666.151-103.723 665.78-106.417C665.409-109.112 662.936-110.981 660.241-110.61Z" fill="#150b14" fill-rule="nonzero" opacity="1" stroke="#000000" stroke-linecap="round" stroke-linejoin="round" stroke-width="5.24699"/>
</g>
<path d="M331.517 311.063C331.517 306.754 335.162 303.261 339.658 303.261C344.154 303.261 347.8 306.754 347.8 311.063C347.8 315.372 344.154 318.865 339.658 318.865C335.162 318.865 331.517 315.372 331.517 311.063Z" fill="#150b14" fill-rule="nonzero" opacity="1" stroke="#000000" stroke-linecap="round" stroke-linejoin="round" stroke-width="5.24699"/>
<path d="M410.511 310.874C410.511 306.565 414.156 303.072 418.652 303.072C423.149 303.072 426.794 306.565 426.794 310.874C426.794 315.183 423.149 318.676 418.652 318.676C414.156 318.676 410.511 315.183 410.511 310.874Z" fill="#150b14" fill-rule="nonzero" opacity="1" stroke="#000000" stroke-linecap="round" stroke-linejoin="round" stroke-width="5.24699"/>
<path d="M372.878 310.581C372.878 306.271 376.523 302.778 381.019 302.778C385.516 302.778 389.161 306.271 389.161 310.581C389.161 314.89 385.516 318.383 381.019 318.383C376.523 318.383 372.878 314.89 372.878 310.581Z" fill="#150b14" fill-rule="nonzero" opacity="1" stroke="#000000" stroke-linecap="round" stroke-linejoin="round" stroke-width="5.24699"/>
</g>
</svg>
