<?xml version="1.0" encoding="UTF-8" standalone="no"?>
<!DOCTYPE svg PUBLIC "-//W3C//DTD SVG 1.1//EN" "http://www.w3.org/Graphics/SVG/1.1/DTD/svg11.dtd">
<!-- Created with Vectornator (http://vectornator.io/) -->
<svg height="100%" stroke-miterlimit="10" style="fill-rule:nonzero;clip-rule:evenodd;stroke-linecap:round;stroke-linejoin:round;" version="1.1" viewBox="100.446 106.511 827.873 800.372" width="100%" xml:space="preserve" xmlns="http://www.w3.org/2000/svg" xmlns:vectornator="http://vectornator.io" xmlns:xlink="http://www.w3.org/1999/xlink">
<defs/>
<g id="Layer-1" vectornator:layerName="Layer 1">
<path d="M234.514 670.28L425.384 673.097" fill="none" opacity="1" stroke="#950588" stroke-linecap="round" stroke-linejoin="round" stroke-width="97.958" vectornator:layerName="Curve 2"/>
<path d="M644.134 694.413C644.134 694.413 677.192 661.274 708.205 645.665C728.753 635.324 754.481 626.141 784.848 629.407C805.377 631.614 829.021 642.157 840.687 652.304C852.781 662.825 861.802 673.109 868.431 691.594C876.382 717.525 878.567 762.608 879.218 799.671C879.557 818.954 879.085 846.739 879.085 846.739" fill="none" opacity="1" stroke="#950588" stroke-linecap="round" stroke-linejoin="round" stroke-width="97.958" vectornator:layerName="Curve 4"/>
<path d="M149.425 155.49C287.604 195.804 400.27 271.474 495.802 361.955C553.727 416.816 584.641 472.665 607.351 531.216C629.326 587.871 644.991 638.513 632.779 720.925C597.515 958.897 192.36 861.826 344.256 620.851C400.809 531.134 529.775 403.279 597.744 332.346C657.973 269.49 647.721 277.287 752.514 162.065" fill="none" opacity="1" stroke="#950588" stroke-linecap="round" stroke-linejoin="round" stroke-width="97.958" vectornator:layerName="Curve 8"/>
</g>
</svg>
