<?xml version="1.0" encoding="UTF-8" standalone="no"?>
<!DOCTYPE svg PUBLIC "-//W3C//DTD SVG 1.1//EN" "http://www.w3.org/Graphics/SVG/1.1/DTD/svg11.dtd">
<!-- Created with Vectornator (http://vectornator.io/) -->
<svg height="100%" stroke-miterlimit="10" style="fill-rule:nonzero;clip-rule:evenodd;stroke-linecap:round;stroke-linejoin:round;" version="1.1" viewBox="0 0 2000 2000" width="100%" xml:space="preserve" xmlns="http://www.w3.org/2000/svg" xmlns:vectornator="http://vectornator.io" xmlns:xlink="http://www.w3.org/1999/xlink">
<defs/>
<g id="Layer-3" vectornator:layerName="Layer 3">
<path d="M1639.4 262.777L1615.62 408.645C1615.62 412.587 1615.62 420.472 1615.62 424.414L1673.37 700.38C1673.37 708.265 1673.37 712.207 1673.37 720.092L1615.62 992.115C1615.62 1000 1615.62 1003.94 1615.62 1011.83L1673.37 1283.85C1673.37 1291.74 1673.37 1295.68 1673.37 1303.56L1615.62 1575.59C1615.62 1579.61 1615.62 1587.45 1615.62 1591.36L1639.4 1737.22C1656.38 1831.84 1578.25 1910.69 1503.52 1879.15L1500.12 1879.15C1493.33 1875.21 1486.53 1875.21 1483.14 1879.15L1252.14 1946.17C1245.35 1946.17 1241.95 1946.17 1235.16 1946.17L1004.16 1879.15C997.367 1879.15 993.97 1879.15 987.176 1879.15L756.181 1946.17C749.387 1946.17 745.99 1946.17 739.196 1946.17L508.201 1879.15C501.407 1879.15 494.613 1879.15 491.216 1879.15L487.819 1879.15C409.689 1910.69 334.955 1831.84 351.94 1737.22L375.719 1587.41C375.719 1583.39 375.719 1575.55 375.719 1571.64L317.97 1299.62C317.97 1291.77 317.97 1287.79 317.97 1279.91L375.719 1011.83C375.719 1003.94 375.719 1000 375.719 992.115L317.97 724.034C317.97 716.15 317.97 712.207 317.97 704.322L375.719 416.53C375.719 412.587 375.719 404.703 375.719 400.76L351.94 270.662C334.955 176.045 413.12 97.1979 487.819 128.737L491.216 128.737C498.01 132.679 504.804 132.679 508.201 128.737L739.196 53.8319C745.99 53.8319 749.387 53.8319 756.181 53.8319L987.176 120.852C993.97 120.852 997.367 120.852 1004.16 120.852L1235.16 53.8319C1241.95 53.8319 1245.35 53.8319 1252.14 53.8319L1483.14 120.852C1489.93 120.852 1496.72 120.852 1500.12 120.852L1503.52 120.852C1578.25 89.3132 1652.99 168.161 1639.4 262.777Z" fill="none" opacity="1" stroke="#000000" stroke-linecap="round" stroke-linejoin="round" stroke-width="16.3389" vectornator:layerName="path 6"/>
<path d="M440.556 176.464L1559.44 176.464L1559.44 1825.73L440.556 1825.73L440.556 176.464Z" fill="none" opacity="1" stroke="#150b14" stroke-linecap="round" stroke-linejoin="round" stroke-width="17" vectornator:layerName="Rectangle 1"/>
</g>
<g id="Layer-1" vectornator:layerName="Layer 1">
<g opacity="1" vectornator:layerName="Group 1">
<path d="M1015.05 961.706C1015.05 1003.21 1026.74 1058.92 1036.69 1099.4C1041.86 1120.43 1018.26 1126.7 1018.26 1145.03" fill="none" opacity="1" stroke="#150b14" stroke-linecap="round" stroke-linejoin="round" stroke-width="17" vectornator:layerName="Curve 2"/>
<path d="M440.556 1490.92C486.392 1475.38 556.173 1447.94 599.538 1425.89" fill="none" opacity="1" stroke="#150b14" stroke-linecap="round" stroke-linejoin="round" stroke-width="17" vectornator:layerName="Curve 10"/>
<path d="M827.726 1276.48C823.544 1284.98 866.533 1396.71 871.539 1406.89C906.395 1477.77 922.035 1559.35 938.682 1635.52C947.476 1675.75 954.205 1718.1 957.865 1759.04C958.974 1771.43 964.402 1831.38 964.402 1825.3" fill="none" opacity="1" stroke="#150b14" stroke-linecap="round" stroke-linejoin="round" stroke-width="17" vectornator:layerName="Curve 14"/>
<path d="M676.799 1812.05C671.768 1806.94 656.632 1753.57 640.485 1676.78C624.338 1599.99 607.18 1499.78 598.105 1400.97C590.503 1318.2 590.1 1231.4 591.751 1163.73C593.402 1096.07 597.107 1047.53 597.721 1041.29C604.152 975.909 618.289 906.536 640.412 840.221C662.534 773.906 692.643 710.649 731.017 657.495C773.445 598.727 830.81 556.604 883.84 535.55C936.87 514.496 985.564 514.51 1010.65 540.015L1011.66 540.812L1012.66 541.608C1057.71 518.707 1096.26 513.838 1134.36 526.658C1172.46 539.478 1210.11 569.987 1253.35 617.841C1296.59 665.696 1328.02 730.992 1351.23 800.548C1374.44 870.104 1389.43 943.92 1399.79 1008.82C1410.16 1073.71 1410.71 1126.9 1406.82 1181.56C1402.93 1236.23 1394.6 1292.37 1387.22 1363.17C1376.92 1461.9 1361.51 1565.28 1347.53 1646.3C1333.55 1727.33 1321 1785.99 1316.43 1795.28L1316.43 1795.28L1316.43 1795.28C1321 1785.99 1333.55 1727.33 1347.53 1646.3C1361.51 1565.28 1376.92 1461.9 1387.22 1363.17C1394.6 1292.37 1402.93 1236.23 1406.82 1181.56C1410.71 1126.9 1410.16 1073.71 1399.79 1008.82C1389.43 943.92 1374.44 870.104 1351.23 800.548C1328.02 730.992 1296.59 665.696 1253.35 617.841C1210.11 569.987 1172.46 539.478 1134.36 526.658C1096.26 513.838 1057.71 518.707 1012.66 541.608" fill="none" opacity="1" stroke="#150b14" stroke-linecap="round" stroke-linejoin="round" stroke-width="17" vectornator:layerName="Curve 99"/>
<path d="M1087.02 913.215C1084.06 904.189 1088.31 894.41 1094.67 887.939" fill="none" opacity="1" stroke="#150b14" stroke-linecap="round" stroke-linejoin="round" stroke-width="17" vectornator:layerName="Curve 40"/>
<path d="M1098.5 911.27C1089.49 915.847 1102.47 887.635 1103.28 885.995" fill="none" opacity="1" stroke="#150b14" stroke-linecap="round" stroke-linejoin="round" stroke-width="17" vectornator:layerName="Curve 41"/>
<path d="M1109.49 899.119C1109.49 895.562 1106.71 905.839 1104.23 908.354C1100.5 912.147 1112.07 888.536 1110.93 893.772C1109.9 898.475 1109.49 903.25 1109.49 899.119Z" fill="none" opacity="1" stroke="#150b14" stroke-linecap="round" stroke-linejoin="round" stroke-width="17" vectornator:layerName="Curve 42"/>
<path d="M1108.06 904.466C1108.06 895.793 1112.98 892.697 1119.53 887.939" fill="none" opacity="1" stroke="#150b14" stroke-linecap="round" stroke-linejoin="round" stroke-width="17" vectornator:layerName="Curve 43"/>
<path d="M1114.75 906.41C1107.59 908.837 1128.44 890.216 1132.92 887.939" fill="none" opacity="1" stroke="#150b14" stroke-linecap="round" stroke-linejoin="round" stroke-width="17" vectornator:layerName="Curve 44"/>
<path d="M1126.23 908.354C1120.12 908.354 1143.02 886.967 1153 886.967" fill="none" opacity="1" stroke="#150b14" stroke-linecap="round" stroke-linejoin="round" stroke-width="17" vectornator:layerName="Curve 45"/>
<path d="M1136.75 902.521C1144.52 894.616 1156.4 885.64 1167.34 884.051" fill="none" opacity="1" stroke="#150b14" stroke-linecap="round" stroke-linejoin="round" stroke-width="17" vectornator:layerName="Curve 46"/>
<path d="M1153 901.549C1162.8 893.8 1172.58 887.939 1185.51 887.939" fill="none" opacity="1" stroke="#150b14" stroke-linecap="round" stroke-linejoin="round" stroke-width="17" vectornator:layerName="Curve 47"/>
<path d="M1167.34 899.605C1174.57 888.59 1191.32 886.993 1202.72 890.856" fill="none" opacity="1" stroke="#150b14" stroke-linecap="round" stroke-linejoin="round" stroke-width="17" vectornator:layerName="Curve 48"/>
<path d="M1185.51 898.633C1181.67 898.633 1194.93 896.23 1199.85 897.661C1209.66 900.509 1220.88 901.543 1229.49 907.382" fill="none" opacity="1" stroke="#150b14" stroke-linecap="round" stroke-linejoin="round" stroke-width="17" vectornator:layerName="Curve 49"/>
<path d="M953.158 900.577C953.158 893.924 954.925 887.412 956.983 881.135" fill="none" opacity="1" stroke="#150b14" stroke-linecap="round" stroke-linejoin="round" stroke-width="17" vectornator:layerName="Curve 50"/>
<path d="M947.421 890.856C946.336 888.648 950.29 900.128 950.29 897.661C950.29 893.652 947.421 881.987 947.421 885.995C947.421 890.635 949.462 895.006 947.421 890.856Z" fill="none" opacity="1" stroke="#150b14" stroke-linecap="round" stroke-linejoin="round" stroke-width="17" vectornator:layerName="Curve 51"/>
<path d="M944.553 897.661C941.075 890.589 937.39 883.821 933.079 877.246" fill="none" opacity="1" stroke="#150b14" stroke-linecap="round" stroke-linejoin="round" stroke-width="17" vectornator:layerName="Curve 52"/>
<path d="M932.123 893.772C925.811 885.216 915.502 881.921 906.306 877.246" fill="none" opacity="1" stroke="#150b14" stroke-linecap="round" stroke-linejoin="round" stroke-width="17" vectornator:layerName="Curve 53"/>
<path d="M932.123 899.605C923.103 892.728 912.129 889.589 901.525 885.995" fill="none" opacity="1" stroke="#150b14" stroke-linecap="round" stroke-linejoin="round" stroke-width="17" vectornator:layerName="Curve 54"/>
<path d="M919.692 901.549C909.106 896.168 899.822 888.532 889.094 883.079" fill="none" opacity="1" stroke="#150b14" stroke-linecap="round" stroke-linejoin="round" stroke-width="17" vectornator:layerName="Curve 55"/>
<path d="M900.569 898.633C891.734 887.406 880.514 883.407 867.102 881.135" fill="none" opacity="1" stroke="#150b14" stroke-linecap="round" stroke-linejoin="round" stroke-width="17" vectornator:layerName="Curve 56"/>
<path d="M869.015 890.856C861.93 883.653 852.901 882.107 843.198 882.107" fill="none" opacity="1" stroke="#150b14" stroke-linecap="round" stroke-linejoin="round" stroke-width="17" vectornator:layerName="Curve 57"/>
<path d="M867.102 897.661C863.027 889.375 851.487 888.372 843.198 886.967" fill="none" opacity="1" stroke="#150b14" stroke-linecap="round" stroke-linejoin="round" stroke-width="17" vectornator:layerName="Curve 58"/>
<path d="M964.402 1214.48C964.402 1214.48 1005.37 1235.59 1037.43 1232.57C1063.33 1230.13 1108.06 1212.83 1108.06 1212.83" fill="none" opacity="1" stroke="#150b14" stroke-linecap="round" stroke-linejoin="round" stroke-width="17" vectornator:layerName="Curve 59"/>
<path d="M821.545 886.751C831.825 890.235 842.62 891.596 851.077 898.761" fill="none" opacity="1" stroke="#150b14" stroke-linecap="round" stroke-linejoin="round" stroke-width="17" vectornator:layerName="Curve 62"/>
<path d="M805.794 888.753C813.639 883.435 823.074 893.534 830.732 897.426" fill="none" opacity="1" stroke="#150b14" stroke-linecap="round" stroke-linejoin="round" stroke-width="17" vectornator:layerName="Curve 63"/>
<path d="M827.726 901.407C827.726 897.01 796.173 900.209 792.621 900.931" fill="none" opacity="1" stroke="#150b14" stroke-linecap="round" stroke-linejoin="round" stroke-width="17" vectornator:layerName="Curve 64"/>
<path d="M818.365 895.22C806.395 895.22 794.575 897.507 782.792 899.503" fill="none" opacity="1" stroke="#150b14" stroke-linecap="round" stroke-linejoin="round" stroke-width="17" vectornator:layerName="Curve 65"/>
<path d="M827.726 899.979C816.961 899.979 788.976 903.159 781.388 914.731" fill="none" opacity="1" stroke="#150b14" stroke-linecap="round" stroke-linejoin="round" stroke-width="17" vectornator:layerName="Curve 66"/>
<path d="M740.81 1066.28C743.335 1081.43 750.494 1130.54 760.863 1167.38C769.125 1196.74 780.329 1215.05 786.306 1225.8C797.818 1246.52 815.712 1261.57 831.119 1279.18C906.961 1365.85 1009.74 1410.3 1115.16 1347.06C1179.13 1308.68 1214.72 1251.06 1241.69 1183.63C1251.74 1158.51 1282.3 1084.19 1282.3 1048.81" fill="none" opacity="1" stroke="#150b14" stroke-linecap="round" stroke-linejoin="round" stroke-width="17" vectornator:layerName="Curve 70"/>
<path d="M1021.42 688.832C1011.35 681.152 983.818 669.715 959.68 673.218C933.079 677.079 900.72 698.161 886.109 711.373C880.797 716.176 848.551 751.129 826.892 791.937C810.512 822.801 770.014 942.551 764.466 982.034C761.537 1002.88 741.885 1065.14 728.287 1082.42C721.347 1091.24 704.9 1112.23 688.851 1122.27" fill="none" opacity="1" stroke="#150b14" stroke-linecap="round" stroke-linejoin="round" stroke-width="17" vectornator:layerName="Curve 71"/>
<path d="M1021.42 687.977C1021.42 687.977 1068.57 670.367 1091.81 672.515C1152.69 678.142 1199.57 757.049 1215.8 810.685C1227.35 848.823 1238.1 855.199 1254.73 914.731C1271.36 974.263 1267.63 1013.87 1282.3 1048.81C1301.52 1094.58 1336.61 1091.88 1337.7 1091.33" fill="none" opacity="1" stroke="#150b14" stroke-linecap="round" stroke-linejoin="round" stroke-width="17" vectornator:layerName="Curve 72"/>
<path d="M1015.05 1825.73C1025.05 1795.22 1037.31 1749.27 1050.62 1702.55C1066.07 1648.36 1082.92 1593.13 1099.31 1559.82" fill="none" opacity="1" stroke="#150b14" stroke-linecap="round" stroke-linejoin="round" stroke-width="17" vectornator:layerName="Curve 75"/>
<path d="M1139.05 1334.26C1122.23 1368.45 1119.51 1412.85 1114.95 1449.93C1106.09 1521.96 1091.81 1592.77 1091.81 1665.59C1091.81 1677.97 1107.64 1824.15 1111.01 1825.3" fill="none" opacity="1" stroke="#150b14" stroke-linecap="round" stroke-linejoin="round" stroke-width="17" vectornator:layerName="Curve 76"/>
<path d="M1383.01 1453.85C1394.68 1459.78 1465.55 1483.23 1492.91 1499.92C1502.25 1505.62 1546.7 1526.77 1559.44 1533.25" fill="none" opacity="1" stroke="#150b14" stroke-linecap="round" stroke-linejoin="round" stroke-width="17" vectornator:layerName="Curve 77"/>
<path d="M721.778 1091.33C721.778 1110.43 732.287 1129.11 748.944 1137.58" fill="none" opacity="1" stroke="#150b14" stroke-linecap="round" stroke-linejoin="round" stroke-width="17" vectornator:layerName="Curve 79"/>
<path d="M1313.89 1091.33C1313.89 1091.33 1307.69 1108.78 1293.05 1128.22C1279.7 1145.96 1255.74 1152.28 1255.74 1152.28" fill="none" opacity="1" stroke="#150b14" stroke-linecap="round" stroke-linejoin="round" stroke-width="17" vectornator:layerName="Curve 80"/>
<path d="M1210.53 893.172C1218.53 893.172 1236.99 907.2 1240.09 913.5" fill="none" opacity="1" stroke="#150b14" stroke-linecap="round" stroke-linejoin="round" stroke-width="17" vectornator:layerName="Curve 82"/>
<path d="M736.381 1112.24C734.549 1112.24 734.662 1111.93 733.456 1114.62C724.666 1134.28 731.085 1176.51 756.861 1163.4" fill="none" opacity="1" stroke="#150b14" stroke-linecap="round" stroke-linejoin="round" stroke-width="17" vectornator:layerName="Curve 87"/>
<path d="M756.861 960.655C778.318 953.713 823.478 937.045 869.015 936.905C926.06 936.729 986.965 962.452 986.965 962.452" fill="none" opacity="1" stroke="#950588" stroke-linecap="round" stroke-linejoin="round" stroke-width="17" vectornator:layerName="Curve 88"/>
<path d="M756.861 962.452C760.474 974.729 759.846 997.969 769.654 1028.6C782.114 1067.51 789.914 1084.69 795.413 1092.7C813.303 1118.74 887.362 1121.2 919.692 1112.23C970.13 1098.24 969.44 1079.16 979.828 1035.34C986.965 1005.24 987.89 954.477 987.89 965.147" fill="none" opacity="1" stroke="#950588" stroke-linecap="round" stroke-linejoin="round" stroke-width="17" vectornator:layerName="Curve 89"/>
<path d="M1053.78 965.98C1075.24 959.037 1120.4 942.37 1165.94 942.229C1222.98 942.053 1283.89 967.777 1283.89 967.777" fill="none" opacity="1" stroke="#950588" stroke-linecap="round" stroke-linejoin="round" stroke-width="17" vectornator:layerName="Curve 93"/>
<path d="M1053.78 967.777C1057.4 980.053 1056.77 1003.29 1066.58 1033.92C1079.04 1072.84 1086.84 1090.01 1092.34 1098.02C1110.23 1124.07 1184.29 1126.52 1216.62 1117.56C1267.05 1103.57 1266.36 1084.48 1276.75 1040.67C1283.89 1010.57 1284.81 959.802 1284.81 970.471" fill="none" opacity="1" stroke="#950588" stroke-linecap="round" stroke-linejoin="round" stroke-width="17" vectornator:layerName="Curve 94"/>
<path d="M981.628 1020.17C1000.56 1010.55 1013.05 996.442 1036.72 1000.45C1046.5 1002.11 1051.1 1013.28 1058.44 1017.02" fill="none" opacity="1" stroke="#150b14" stroke-linecap="round" stroke-linejoin="round" stroke-width="17" vectornator:layerName="Curve 92"/>
<path d="M1274.05 1131.64C1279.03 1141.76 1288.93 1147.42 1287.13 1160.21C1283.97 1182.69 1262.44 1190.27 1251.77 1168.58" fill="none" opacity="1" stroke="#150b14" stroke-linecap="round" stroke-linejoin="round" stroke-width="17" vectornator:layerName="Curve 95"/>
<path d="M1428.7 1806.46C1464.04 1779.52 1495.05 1758.15 1517.5 1717.07C1524.89 1703.55 1533.13 1691.68 1538.6 1676.85C1540.63 1671.37 1544.76 1650.94 1544.76 1662.55" fill="none" opacity="1" stroke="#150b14" stroke-linecap="round" stroke-linejoin="round" stroke-width="17" vectornator:layerName="Curve 96"/>
<path d="M456.826 1610.6C456.781 1610.57 463.855 1629.31 466.73 1636.33C473.129 1651.94 481.904 1666.91 488.739 1682.2C508.057 1725.41 500.797 1787.27 519.552 1825.41" fill="none" opacity="1" stroke="#150b14" stroke-linecap="round" stroke-linejoin="round" stroke-width="17" vectornator:layerName="Curve 97"/>
<path d="M597.684 1427.11C579.206 1483.47 574.505 1545.88 552.565 1601.65C549.352 1609.81 526.295 1651.44 531.656 1658.7C534.285 1662.27 553.298 1659.82 556.967 1659.82C574.049 1659.82 592.123 1665.39 607.588 1673.25C617.537 1678.31 646.012 1698.95 642.802 1697.86" fill="none" opacity="1" stroke="#150b14" stroke-linecap="round" stroke-linejoin="round" stroke-width="17" vectornator:layerName="Curve 98"/>
</g>
</g>
<g id="Layer-2" vectornator:layerName="Layer 2">
<path d="M500.253 648.974C495.553 637.374 476.253 651.774 482.753 662.574C483.553 663.774 483.653 665.074 483.453 666.174C483.753 667.174 483.753 668.274 483.253 669.374C483.453 669.474 483.753 669.574 484.053 669.774C485.553 670.474 487.053 670.974 488.653 671.274C491.153 671.774 494.553 672.674 496.353 670.674C501.153 665.474 502.953 655.674 500.253 648.974ZM586.353 611.974C585.453 605.974 576.053 598.874 570.253 603.674C566.153 607.074 566.253 612.874 566.453 617.974C568.353 618.874 569.753 620.674 569.453 623.274C569.253 624.774 569.353 625.274 571.253 625.574C573.053 625.874 574.953 625.674 576.753 625.274C582.353 623.674 587.253 618.374 586.353 611.974ZM540.953 556.974C538.653 550.874 529.753 545.074 524.353 550.874C520.453 555.074 517.953 560.974 517.053 566.774C518.353 567.174 519.553 568.074 520.253 569.674C523.453 576.874 544.053 565.274 540.953 556.974ZM685.253 678.974C684.153 675.574 679.853 672.374 677.153 675.974C675.053 678.874 674.053 682.774 673.653 686.474C675.153 686.774 676.553 687.674 677.253 689.674C677.353 689.974 677.553 690.174 677.553 690.274L677.653 690.274C676.953 690.374 679.053 689.774 678.853 689.874C679.553 689.474 680.353 689.074 680.953 688.474C683.353 686.274 686.453 682.374 685.253 678.974ZM653.853 722.274C645.153 720.474 639.453 726.374 639.553 734.974C639.553 736.574 638.953 737.874 637.953 738.774C638.053 751.774 660.253 757.474 663.753 742.674C665.853 734.274 663.453 724.174 653.853 722.274ZM780.853 486.474C778.253 483.274 772.953 484.274 769.953 486.174C766.953 488.074 764.653 490.574 763.453 493.674C764.653 495.374 764.853 497.674 763.253 499.674C762.553 500.574 762.753 500.674 764.253 501.674C765.553 502.574 767.153 503.274 768.653 503.674C771.853 504.474 775.353 505.074 778.453 503.274C783.253 500.274 784.353 490.774 780.853 486.474ZM675.553 538.474C672.753 525.774 675.653 512.774 675.653 499.874C670.253 500.774 665.153 502.674 660.153 504.774C654.653 507.074 648.853 510.374 642.853 511.074C631.853 512.374 624.153 506.274 614.953 501.474C609.753 498.774 604.253 495.974 598.353 495.474C596.253 495.274 593.053 494.874 590.953 495.574C590.653 495.674 590.453 495.674 590.353 495.674C590.353 495.774 590.353 495.874 590.353 496.074C587.853 507.374 588.753 519.074 586.453 530.374C586.053 532.274 584.953 533.374 583.553 533.974L583.553 534.074C583.553 535.374 583.153 536.474 582.453 537.274C581.053 542.374 578.753 547.174 576.453 551.974C574.953 555.074 573.453 558.174 572.453 561.474C572.053 562.674 570.653 565.974 571.553 567.274C573.353 569.774 578.653 569.874 581.353 570.274C586.153 571.074 590.753 572.174 595.453 573.174C604.453 575.074 617.053 576.774 623.753 583.774C630.753 591.274 632.653 601.974 638.553 610.074C642.953 606.474 645.553 600.174 647.953 595.474C650.953 589.474 654.053 582.674 658.953 577.974C664.553 572.674 672.553 570.874 679.853 569.174C684.553 568.074 689.953 567.174 694.253 564.774C685.753 557.874 677.953 548.974 675.553 538.474Z" fill="#950588" fill-rule="nonzero" opacity="1" stroke="none" vectornator:layerName="path"/>
<path d="M1462.09 405.981C1460.11 404.5 1457.79 403.482 1455.55 402.649C1446.12 399.039 1434.36 396.725 1429.56 385.525C1427.49 380.712 1427.07 375.251 1426.74 369.975C1426.58 366.735 1426.66 362.2 1425.5 358.683C1415.4 366.365 1405.71 375.251 1398.93 386.729C1397.52 389.043 1395.12 389.413 1393.3 388.487C1387.75 391.079 1381.79 392.93 1376.49 396.077C1382.53 403.39 1391.39 407.555 1393.96 418.107C1395.12 423.013 1393.71 428.103 1392.63 432.824C1391.81 436.712 1389.49 443.006 1390.81 446.986C1390.89 447.264 1390.98 447.449 1390.98 447.541C1391.72 447.634 1392.38 447.634 1393.13 447.541C1395.61 447.264 1398.01 446.616 1400.42 445.968C1404.8 444.764 1409.69 442.821 1414.24 442.913C1419.54 443.006 1423.93 446.153 1428.15 449.485C1431.13 451.892 1434.44 455.224 1438.09 456.427C1437.59 444.764 1436.51 431.528 1444.46 423.013C1449.59 417.551 1456.13 414.034 1461.93 409.499C1462.59 408.943 1463.25 408.48 1464 407.925L1464 407.925C1463.5 407.185 1462.84 406.537 1462.09 405.981ZM1249.16 503.726C1245.35 498.08 1245.93 491.878 1246.26 485.491C1239.97 489.749 1233.68 493.914 1226.97 497.339C1225.15 498.265 1223.66 497.617 1222.75 496.414C1220.68 496.043 1218.53 495.951 1216.46 495.858C1218.86 501.319 1222.5 506.41 1221.34 512.797C1220.1 519.554 1215.3 524.46 1213.64 531.031C1216.46 531.031 1219.27 530.939 1222.09 531.124C1227.63 531.494 1234.34 532.235 1238.48 536.955C1240.8 539.547 1244.11 545.101 1247.5 546.304C1247.58 545.471 1247.75 544.731 1247.75 543.897C1247.92 541.583 1247.92 539.269 1247.92 536.955C1247.92 530.569 1250.15 522.331 1254.54 517.888C1256.69 515.666 1258.76 514 1261.41 512.519C1261.91 512.242 1262.32 512.056 1262.82 511.779C1257.77 509.835 1252.39 508.539 1249.16 503.726ZM1517.81 489.657C1516.98 477.624 1493.97 469.478 1495.46 485.214C1495.54 485.769 1495.46 486.324 1495.38 486.787C1494.96 500.023 1518.81 503.726 1517.81 489.657Z" fill="#150b14" fill-rule="nonzero" opacity="1" stroke="none" vectornator:layerName="path 1"/>
<path d="M1390.55 559.432C1382.55 551.432 1384.25 540.232 1380.85 530.432C1369.35 535.132 1356.85 541.932 1349.25 551.332C1346.55 554.732 1342.25 552.832 1340.95 549.732C1337.05 550.932 1333.05 552.232 1329.25 553.732C1327.55 554.432 1319.85 556.632 1319.45 559.032C1319.15 561.032 1322.55 564.432 1323.75 565.832C1326.25 569.032 1329.55 571.232 1332.65 573.832C1338.45 578.732 1342.55 585.032 1341.45 592.932C1340.65 598.632 1337.55 603.832 1335.75 609.232C1343.85 604.832 1352.35 600.032 1361.45 603.032C1368.05 605.232 1372.95 609.532 1379.15 612.432C1380.85 613.232 1383.45 614.832 1385.45 614.632C1385.75 614.632 1385.85 614.732 1385.85 614.732C1385.85 614.632 1385.85 614.432 1385.95 614.032C1387.95 605.532 1386.75 596.932 1391.55 589.132C1396.55 581.132 1405.25 576.732 1412.05 570.432C1405.35 566.232 1396.45 565.332 1390.55 559.432Z" fill="#150b14" fill-rule="nonzero" opacity="1" stroke="none" vectornator:layerName="path 2"/>
<path d="M1394.13 675.374C1342.78 706.189 1372.18 716.83 1397.02 729.252" fill="none" opacity="1" stroke="#150b14" stroke-linecap="round" stroke-linejoin="round" stroke-width="17" vectornator:layerName="Curve 1"/>
<path d="M1444.16 667.678C1444.16 641.29 1422.04 717.297 1422.04 743.684" fill="none" opacity="1" stroke="#150b14" stroke-linecap="round" stroke-linejoin="round" stroke-width="17" vectornator:layerName="Curve 2"/>
<path d="M1463.41 681.147C1505.37 702.128 1511.62 708.652 1466.29 738.873" fill="none" opacity="1" stroke="#150b14" stroke-linecap="round" stroke-linejoin="round" stroke-width="17" vectornator:layerName="Curve 3"/>
<g opacity="1" vectornator:layerName="Group 1">
<path d="M1409.6 825.007C1416.25 834.973 1416.14 847.363 1418.45 858.903" fill="none" opacity="1" stroke="#150b14" stroke-linecap="round" stroke-linejoin="round" stroke-width="17" vectornator:layerName="Curve 1"/>
<path d="M1446.45 822.796C1442.51 824.198 1440.13 829.695 1440.55 833.849C1445.45 881.589 1491.65 806.687 1446.45 822.796Z" fill="none" opacity="1" stroke="#150b14" stroke-linecap="round" stroke-linejoin="round" stroke-width="17" vectornator:layerName="Curve 2"/>
<path d="M1483.29 814.69C1485.94 825.272 1486.51 836.272 1487.71 847.113" fill="none" opacity="1" stroke="#150b14" stroke-linecap="round" stroke-linejoin="round" stroke-width="17" vectornator:layerName="Curve 3"/>
<path d="M1508.35 805.848C1510.25 819.202 1513.07 832.412 1515.72 845.639" fill="none" opacity="1" stroke="#150b14" stroke-linecap="round" stroke-linejoin="round" stroke-width="17" vectornator:layerName="Curve 4"/>
</g>
</g>
<g id="Layer-4" vectornator:layerName="Layer 4">
<g opacity="1" vectornator:layerName="Group 2">
<path d="M728.453 367.122C733.66 346.293 758.833 336.738 773.037 320.64C783.374 308.926 792.126 295.854 800.547 282.696C820.27 251.879 782.87 216.691 784.421 286.49C784.611 295.032 785.217 303.561 785.369 312.103C785.533 321.271 785.369 330.442 785.369 339.612C785.369 359.966 779.81 382.695 786.318 402.22" fill="none" opacity="1" stroke="#150b14" stroke-linecap="round" stroke-linejoin="round" stroke-width="16.4205" vectornator:layerName="Curve 1"/>
<path d="M815.725 323.486C815.725 335.515 787.282 352.022 789.164 361.43C790.467 367.949 804.637 355.54 809.084 360.481C815.213 367.291 816.547 380.351 826.159 384.196C838.269 389.04 842.167 352.387 843.234 346.252C844.169 340.875 843.639 325.244 846.08 330.126C849.648 337.262 838.186 384.068 856.514 380.402C869.294 377.846 874.2 357.205 877.384 347.201C878.477 343.765 879.447 340.286 880.23 336.766C880.715 334.584 880.178 328.126 881.178 330.126C886.073 339.916 873.76 368.24 881.178 375.659C885.571 380.052 883.74 363.452 885.921 357.635C886.738 355.457 905.983 322.687 908.688 330.126C912.557 340.768 910.585 354.211 910.585 365.224C910.585 369.071 909.405 378.916 912.482 376.608C928.227 364.799 921.409 336.097 942.837 325.383C957.674 317.965 934.977 421.124 970.347 368.07" fill="none" opacity="1" stroke="#150b14" stroke-linecap="round" stroke-linejoin="round" stroke-width="16.4205" vectornator:layerName="Curve 2"/>
<path d="M992.165 345.304C1004.91 345.304 1017.5 342.415 1030.11 340.561" fill="none" opacity="1" stroke="#150b14" stroke-linecap="round" stroke-linejoin="round" stroke-width="16.4205" vectornator:layerName="Curve 3"/>
<path d="M1087.02 284.593C1087.02 276.663 1085.3 300.38 1085.13 308.308C1084.51 336.914 1085.13 365.914 1085.13 394.631" fill="none" opacity="1" stroke="#150b14" stroke-linecap="round" stroke-linejoin="round" stroke-width="16.4205" vectornator:layerName="Curve 4"/>
<path d="M1064.26 341.509C1060.07 342.557 1092.84 334.975 1102.2 331.075C1105.36 329.759 1110.74 321.963 1110.74 325.383C1110.74 331.013 1107.11 373.602 1119.28 371.865C1127.51 370.689 1134.82 346.232 1137.3 339.612C1138.64 336.035 1140.33 325.76 1142.04 329.177C1147.19 339.463 1134.73 378.458 1157.22 374.71C1177.82 371.277 1170.74 323.866 1175.24 331.075C1188.12 351.682 1238.47 326.28 1235.96 318.743C1229.54 299.484 1189.35 322.312 1206.55 354.79C1226.42 392.332 1305.94 346.332 1286.23 318.743C1276.3 304.845 1236.32 371.836 1285.28 368.07C1295.38 367.293 1295.43 366.267 1304.25 363.327C1310.09 361.382 1314.92 361.199 1319.43 356.687" fill="none" opacity="1" stroke="#150b14" stroke-linecap="round" stroke-linejoin="round" stroke-width="16.4205" vectornator:layerName="Curve 5"/>
<path d="M843.626 300.825C842.404 298.38 842.554 299.767 846.242 297.555" fill="none" opacity="1" stroke="#150b14" stroke-linecap="round" stroke-linejoin="round" stroke-width="16.4205" vectornator:layerName="Curve 1"/>
</g>
<g opacity="1" vectornator:layerName="Group 3">
<path d="M739.474 367.122C744.681 346.293 769.854 336.738 784.059 320.64C794.395 308.926 803.147 295.854 811.568 282.696C831.291 251.879 793.891 216.691 795.442 286.49C795.632 295.032 796.238 303.561 796.391 312.103C796.554 321.271 796.391 330.442 796.391 339.612C796.391 359.966 790.831 382.695 797.339 402.22" fill="none" opacity="1" stroke="#950588" stroke-linecap="round" stroke-linejoin="round" stroke-width="16.4205" vectornator:layerName="Curve 1"/>
<path d="M826.746 323.486C826.746 335.515 798.303 352.022 800.185 361.43C801.489 367.949 815.658 355.54 820.106 360.481C826.234 367.291 827.568 380.351 837.18 384.196C849.29 389.04 853.188 352.387 854.255 346.252C855.19 340.875 854.66 325.244 857.101 330.126C860.669 337.262 849.208 384.068 867.536 380.402C880.316 377.846 885.222 357.205 888.405 347.201C889.498 343.765 890.469 340.286 891.251 336.766C891.736 334.584 891.199 328.126 892.199 330.126C897.094 339.916 884.781 368.24 892.199 375.659C896.592 380.052 894.761 363.452 896.942 357.635C897.759 355.457 917.004 322.687 919.709 330.126C923.578 340.768 921.606 354.211 921.606 365.224C921.606 369.071 920.426 378.916 923.503 376.608C939.248 364.799 932.43 336.097 953.858 325.383C968.695 317.965 945.999 421.124 981.368 368.07" fill="none" opacity="1" stroke="#950588" stroke-linecap="round" stroke-linejoin="round" stroke-width="16.4205" vectornator:layerName="Curve 2"/>
<path d="M1003.19 345.304C1015.93 345.304 1028.52 342.415 1041.13 340.561" fill="none" opacity="1" stroke="#950588" stroke-linecap="round" stroke-linejoin="round" stroke-width="16.4205" vectornator:layerName="Curve 3"/>
<path d="M1098.05 284.593C1098.05 276.663 1096.32 300.38 1096.15 308.308C1095.53 336.914 1096.15 365.914 1096.15 394.631" fill="none" opacity="1" stroke="#950588" stroke-linecap="round" stroke-linejoin="round" stroke-width="16.4205" vectornator:layerName="Curve 4"/>
<path d="M1075.28 341.509C1071.09 342.557 1103.86 334.975 1113.22 331.075C1116.38 329.759 1121.76 321.963 1121.76 325.383C1121.76 331.013 1118.13 373.602 1130.3 371.865C1138.53 370.689 1145.84 346.232 1148.32 339.612C1149.66 336.035 1151.36 325.76 1153.06 329.177C1158.21 339.463 1145.75 378.458 1168.24 374.71C1188.84 371.277 1181.76 323.866 1186.27 331.075C1199.15 351.682 1249.49 326.28 1246.98 318.743C1240.56 299.484 1200.38 322.312 1217.57 354.79C1237.44 392.332 1316.96 346.332 1297.25 318.743C1287.33 304.845 1247.34 371.836 1296.3 368.07C1306.41 367.293 1306.46 366.267 1315.28 363.327C1321.11 361.382 1325.94 361.199 1330.45 356.687" fill="none" opacity="1" stroke="#950588" stroke-linecap="round" stroke-linejoin="round" stroke-width="16.4205" vectornator:layerName="Curve 5"/>
<path d="M854.648 300.825C853.425 298.38 853.575 299.767 857.264 297.555" fill="none" opacity="1" stroke="#950588" stroke-linecap="round" stroke-linejoin="round" stroke-width="16.4205" vectornator:layerName="Curve 1"/>
</g>
</g>
<clipPath id="ArtboardFrame">
<rect height="2000" width="2000" x="0" y="0"/>
</clipPath>
<g clip-path="url(#ArtboardFrame)" id="Layer-5" vectornator:layerName="Layer 5" visibility="hidden">
<g opacity="1" vectornator:layerName="Group 3">
<g opacity="1" vectornator:layerName="Group 1">
<path d="M1586.06-224.92C1633.2-268.626 1675.15-323.012 1701.9-380.234C1703.28-383.2 1719.5-415.549 1705.46-419.889C1666.04-432.074 1673.38-264.123 1673.38-234.834" fill="none" opacity="0.992662" stroke="#950588" stroke-linecap="round" stroke-linejoin="round" stroke-width="16.4205" vectornator:layerName="Curve 1"/>
<path d="M1714.37-312.491C1691.68-303.472 1687.48-303.608 1668.04-274.488C1666.33-271.925 1696.71-277.605 1698.33-277.793C1710.59-279.213 1719.99-261.923 1733.97-271.184C1744.64-278.246 1749.09-292.962 1751.79-304.229C1752.58-307.5 1753.58-317.493 1753.58-314.143C1753.58-307.52 1744.04-266.033 1766.05-272.836C1781.64-277.656 1792.51-293.303 1799.91-305.882C1802.25-309.869 1803.47-323.642 1803.47-319.1C1803.47-317.192 1802.77-275.707 1803.47-276.141C1815.52-283.586 1814.27-327.361 1833.77-327.361C1850.33-327.361 1827.59-280.592 1842.68-277.793C1867.08-273.269 1869.12-327.361 1883.66-327.361C1885.11-327.361 1870.26-271.174 1889.01-276.141C1916.96-283.544 1938.57-334.366 1944.25-355.45C1947.6-367.843 1959.34-402.486 1949.6-393.452C1925.09-370.728 1940.69-283.167 1940.69-254.661C1940.69-240.341 1941.65-225.994 1940.69-211.702C1940.39-207.27 1940.07-194.176 1938.91-198.484C1933.06-220.17 1938.47-244.029 1935.34-266.227C1933.59-278.693 1909.68-288.029 1915.74-299.273C1932.96-331.202 2048.25-319.509 2028.01-385.191C2027.03-388.368 2020.17-387.174 2017.32-385.191C1999.67-372.922 1978.41-298.535 1995.93-287.707C1997.34-286.838 2040.61-333.739 2042.27-330.666C2054.38-308.198 2043.66-293.957 2077.91-325.709C2081.47-329.014 2084.09-337.713 2088.6-335.623C2093.48-333.36 2073.77-315.432 2097.51-319.1C2105.44-320.326 2114.09-328.955 2118.89-333.97C2121.74-336.939 2126.02-347.856 2126.02-343.884C2126.02-336.898 2119.31-329.703 2122.46-322.405C2129.22-306.724 2175.16-356.867 2165.23-353.798C2158.01-351.566 2148.19-223.268 2131.37-223.268C2113.62-223.268 2135.74-258.716 2138.5-261.27C2146.89-269.056 2281.3-392.603 2268.58-408.323C2247.76-434.074 2219.7-346.249 2234.73-332.318C2245.76-322.088 2259.49-361.171 2266.8-357.102C2274.79-352.661 2258.29-329.014 2270.37-329.014C2277.99-329.014 2343.76-355.815 2338.08-363.711C2329.31-375.914 2296.61-344.001 2295.32-335.623C2293.6-324.501 2329.89-341.957 2334.52-345.536C2338.39-348.528 2345.21-360.123 2345.21-355.45C2345.21-309.299 2392.11-344.96 2421.84-367.016" fill="none" opacity="0.992662" stroke="#950588" stroke-linecap="round" stroke-linejoin="round" stroke-width="16.4205" vectornator:layerName="Curve 2"/>
</g>
</g>
<g opacity="0.794574" vectornator:layerName="Group 2">
<path d="M1578.16-224.92C1625.3-268.626 1667.25-323.012 1693.99-380.234C1695.38-383.2 1711.6-415.549 1697.56-419.889C1658.13-432.074 1665.48-264.123 1665.48-234.834" fill="none" opacity="0.992662" stroke="#150b14" stroke-linecap="round" stroke-linejoin="round" stroke-width="16.4205" vectornator:layerName="Curve 1"/>
<path d="M1706.47-312.491C1683.77-303.472 1679.58-303.608 1660.13-274.488C1658.42-271.925 1688.8-277.605 1690.43-277.793C1702.68-279.213 1712.09-261.923 1726.07-271.184C1736.73-278.246 1741.19-292.962 1743.89-304.229C1744.67-307.5 1745.67-317.493 1745.67-314.143C1745.67-307.52 1736.13-266.033 1758.15-272.836C1773.74-277.656 1784.6-293.303 1792-305.882C1794.35-309.869 1795.57-323.642 1795.57-319.1C1795.57-317.192 1794.87-275.707 1795.57-276.141C1807.61-283.586 1806.37-327.361 1825.86-327.361C1842.43-327.361 1819.68-280.592 1834.77-277.793C1859.17-273.269 1861.21-327.361 1875.76-327.361C1877.21-327.361 1862.36-271.174 1881.11-276.141C1909.05-283.544 1930.66-334.366 1936.35-355.45C1939.69-367.843 1951.44-402.486 1941.7-393.452C1917.19-370.728 1932.79-283.167 1932.79-254.661C1932.79-240.341 1933.75-225.994 1932.79-211.702C1932.49-207.27 1932.16-194.176 1931-198.484C1925.16-220.17 1930.56-244.029 1927.44-266.227C1925.69-278.693 1901.77-288.029 1907.84-299.273C1925.06-331.202 2040.35-319.509 2020.11-385.191C2019.13-388.368 2012.26-387.174 2009.41-385.191C1991.77-372.922 1970.51-298.535 1988.03-287.707C1989.43-286.838 2032.7-333.739 2034.36-330.666C2046.48-308.198 2035.76-293.957 2070-325.709C2073.57-329.014 2076.19-337.713 2080.69-335.623C2085.57-333.36 2065.87-315.432 2089.6-319.1C2097.54-320.326 2106.18-328.955 2110.99-333.97C2113.83-336.939 2118.12-347.856 2118.12-343.884C2118.12-336.898 2111.4-329.703 2114.55-322.405C2121.32-306.724 2167.25-356.867 2157.32-353.798C2150.1-351.566 2140.28-223.268 2123.46-223.268C2105.71-223.268 2127.84-258.716 2130.59-261.27C2138.99-269.056 2273.4-392.603 2260.68-408.323C2239.85-434.074 2211.8-346.249 2226.82-332.318C2237.86-322.088 2251.58-361.171 2258.9-357.102C2266.88-352.661 2250.38-329.014 2262.46-329.014C2270.09-329.014 2335.86-355.815 2330.18-363.711C2321.41-375.914 2288.7-344.001 2287.41-335.623C2285.7-324.501 2321.98-341.957 2326.62-345.536C2330.49-348.528 2337.31-360.123 2337.31-355.45C2337.31-309.299 2384.2-344.96 2413.94-367.016" fill="none" opacity="0.992662" stroke="#150b14" stroke-linecap="round" stroke-linejoin="round" stroke-width="16.4205" vectornator:layerName="Curve 2"/>
</g>
</g>
</svg>
